<?xml version="1.0" encoding="UTF-8" standalone="no"?>
<!-- Created with Inkscape (http://www.inkscape.org/) -->

<svg
   xmlns:dc="http://purl.org/dc/elements/1.1/"
   xmlns:cc="http://creativecommons.org/ns#"
   xmlns:rdf="http://www.w3.org/1999/02/22-rdf-syntax-ns#"
   xmlns:svg="http://www.w3.org/2000/svg"
   xmlns="http://www.w3.org/2000/svg"
   xmlns:sodipodi="http://sodipodi.sourceforge.net/DTD/sodipodi-0.dtd"
   xmlns:inkscape="http://www.inkscape.org/namespaces/inkscape"
   width="64"
   height="64"
   viewBox="0 0 64.000001 64.000001"
   id="svg2"
   version="1.1"
   inkscape:version="0.91 r13725"
   sodipodi:docname="Bulkers.svg"
   inkscape:export-filename="C:\Users\David.Chong\Desktop\Mycoventure\android\assets\Money.png"
   inkscape:export-xdpi="90"
   inkscape:export-ydpi="90">
  <defs
     id="defs4" />
  <sodipodi:namedview
     id="base"
     pagecolor="#ffffff"
     bordercolor="#666666"
     borderopacity="1.0"
     inkscape:pageopacity="0.0"
     inkscape:pageshadow="2"
     inkscape:zoom="4.2283889"
     inkscape:cx="18.357163"
     inkscape:cy="28.52974"
     inkscape:document-units="px"
     inkscape:current-layer="layer1"
     showgrid="false"
     units="px"
     inkscape:window-width="1366"
     inkscape:window-height="706"
     inkscape:window-x="-8"
     inkscape:window-y="-8"
     inkscape:window-maximized="1" />
  <metadata
     id="metadata7">
    <rdf:RDF>
      <cc:Work
         rdf:about="">
        <dc:format>image/svg+xml</dc:format>
        <dc:type
           rdf:resource="http://purl.org/dc/dcmitype/StillImage" />
        <dc:title></dc:title>
      </cc:Work>
    </rdf:RDF>
  </metadata>
  <g
     inkscape:label="Layer 1"
     inkscape:groupmode="layer"
     id="layer1"
     transform="translate(0,-988.36216)">
    <path
       style="fill:#ffff00;fill-rule:evenodd;stroke:#000000;stroke-width:1.03420508px;stroke-linecap:butt;stroke-linejoin:miter;stroke-opacity:1"
       d="m 4.2751698,1040.6769 c 0,0 13.1092442,-41.56247 29.3068012,-41.51067 15.141814,0.048 19.999206,23.46137 27.179693,38.97967 4.250525,9.1861 -18.32455,6.9035 -27.888729,7.3403 -9.640637,0.4403 -28.5977652,-4.8093 -28.5977652,-4.8093 z"
       id="path4427"
       inkscape:connector-curvature="0"
       sodipodi:nodetypes="casac" />
    <path
       style="fill:none;fill-rule:evenodd;stroke:#000000;stroke-width:1px;stroke-linecap:butt;stroke-linejoin:miter;stroke-opacity:1"
       d="m 16.081775,1027.7665 c 0.888921,0.024 1.725483,0.3757 2.601464,0.473 0.3134,0.035 0.634324,-0.048 0.945987,0 0.718345,0.1105 1.407285,0.3828 2.12847,0.473 0.547564,0.068 1.103651,0 1.655477,0 0.630658,0 1.262712,-0.042 1.891973,0 0.556194,0.037 1.099975,0.1902 1.655477,0.2365 0.3928,0.033 0.789684,-0.033 1.182484,0 1.642935,0.1369 1.879801,0.3246 3.54745,0.7095 0.391673,0.09 0.797469,0.121 1.182483,0.2365 0.406621,0.122 0.775863,0.351 1.182484,0.473 0.385015,0.1155 0.792518,0.139 1.182483,0.2365 0.307678,0.077 0.888892,0.2772 1.182484,0.473 0.09276,0.062 0.136781,0.1866 0.236497,0.2365 0.141019,0.07 0.331974,-0.071 0.472993,0 0.09972,0.05 0.136781,0.1866 0.236497,0.2365 0.01237,0.01 0.697117,0.01 0.70949,0 0.09972,-0.05 0.136781,-0.1867 0.236496,-0.2365 0.143607,-0.072 1.275375,0.072 1.418981,0 0.09971,-0.05 0.136781,-0.1867 0.236496,-0.2365 0.07051,-0.035 0.157665,0 0.236497,0 0.07883,0 0.157664,0 0.236497,0 0.07883,0 0.236496,-0.079 0.236496,0 0,0.079 -0.315329,0 -0.236496,0 0.236496,0 0.472993,0 0.70949,0 0.788322,0 1.576644,0 2.364967,0"
       id="path4435"
       inkscape:connector-curvature="0" />
    <path
       style="fill:none;fill-rule:evenodd;stroke:#000000;stroke-width:1px;stroke-linecap:butt;stroke-linejoin:miter;stroke-opacity:1"
       d="m 21.527946,1029.8911 c 0.888921,0.024 1.725483,0.3757 2.601464,0.473 0.3134,0.035 0.634324,-0.048 0.945987,0 0.718345,0.1105 1.407285,0.3828 2.12847,0.473 0.547564,0.068 1.103651,0 1.655477,0 0.630658,0 1.262712,-0.042 1.891973,0 0.556194,0.037 1.099975,0.1902 1.655477,0.2365 0.3928,0.033 0.789684,-0.033 1.182484,0 1.642935,0.1369 1.879801,0.3246 3.54745,0.7095 0.391673,0.09 0.797469,0.121 1.182483,0.2365 0.406621,0.122 0.775863,0.351 1.182484,0.473 0.385015,0.1155 0.792518,0.139 1.182483,0.2365 0.307678,0.077 0.888892,0.2772 1.182484,0.473 0.09276,0.062 0.136781,0.1866 0.236497,0.2365 0.141019,0.07 0.331974,-0.071 0.472993,0 0.09972,0.05 0.136781,0.1866 0.236497,0.2365 0.01237,0.01 0.697117,0.01 0.70949,0 0.09972,-0.05 0.136781,-0.1867 0.236496,-0.2365 0.143607,-0.072 1.275375,0.072 1.418981,0 0.09971,-0.05 0.136781,-0.1867 0.236496,-0.2365 0.07051,-0.035 0.157665,0 0.236497,0 0.07883,0 0.157664,0 0.236497,0 0.07883,0 0.236496,-0.079 0.236496,0 0,0.079 -0.315329,0 -0.236496,0 0.236496,0 0.472993,0 0.70949,0 0.788322,0 1.576644,0 2.364967,0"
       id="path4435-7"
       inkscape:connector-curvature="0" />
    <path
       style="fill:none;fill-rule:evenodd;stroke:#000000;stroke-width:1px;stroke-linecap:butt;stroke-linejoin:miter;stroke-opacity:1"
       d="m 19.872469,1036.986 c 0.888921,0.024 1.725483,0.3757 2.601464,0.473 0.3134,0.035 0.634324,-0.048 0.945987,0 0.718345,0.1105 1.407285,0.3828 2.12847,0.473 0.547564,0.068 1.103651,0 1.655477,0 0.630658,0 1.262712,-0.042 1.891973,0 0.556194,0.037 1.099976,0.1902 1.655478,0.2365 0.3928,0.033 0.789684,-0.033 1.182484,0 1.642935,0.1369 1.879801,0.3246 3.54745,0.7095 0.391673,0.09 0.797469,0.121 1.182483,0.2365 0.406621,0.122 0.775863,0.351 1.182484,0.473 0.385015,0.1155 0.792518,0.139 1.182483,0.2365 0.307678,0.077 0.888892,0.2772 1.182484,0.473 0.09276,0.062 0.136781,0.1866 0.236497,0.2365 0.141019,0.07 0.331974,-0.071 0.472993,0 0.09972,0.05 0.136781,0.1866 0.236497,0.2365 0.01237,0.01 0.697117,0.01 0.70949,0 0.09972,-0.05 0.136781,-0.1867 0.236496,-0.2365 0.143607,-0.072 1.275375,0.072 1.418981,0 0.09971,-0.05 0.136781,-0.1867 0.236496,-0.2365 0.07051,-0.035 0.157665,0 0.236497,0 0.07883,0 0.157664,0 0.236497,0 0.07883,0 0.236496,-0.079 0.236496,0 0,0.079 -0.315329,0 -0.236496,0 0.236496,0 0.472993,0 0.70949,0 0.788322,0 1.576644,0 2.364967,0"
       id="path4435-1"
       inkscape:connector-curvature="0" />
    <path
       style="fill:none;fill-rule:evenodd;stroke:#000000;stroke-width:1px;stroke-linecap:butt;stroke-linejoin:miter;stroke-opacity:1"
       d="m 12.068078,1033.2021 c 0.888921,0.024 1.725483,0.3757 2.601464,0.473 0.3134,0.035 0.634324,-0.048 0.945987,0 0.718345,0.1105 1.407285,0.3828 2.12847,0.473 0.547564,0.068 1.103651,0 1.655477,0 0.630658,0 1.262712,-0.042 1.891973,0 0.556194,0.037 1.099976,0.1902 1.655478,0.2365 0.3928,0.033 0.789684,-0.033 1.182484,0 1.642935,0.1369 1.879801,0.3246 3.54745,0.7095 0.391673,0.09 0.797469,0.121 1.182483,0.2365 0.406621,0.122 0.775863,0.351 1.182484,0.473 0.385015,0.1155 0.792518,0.139 1.182483,0.2365 0.307678,0.077 0.888892,0.2772 1.182484,0.473 0.09276,0.062 0.136781,0.1866 0.236497,0.2365 0.141019,0.07 0.331974,-0.071 0.472993,0 0.09972,0.05 0.136781,0.1866 0.236497,0.2365 0.01237,0.01 0.697117,0.01 0.70949,0 0.09972,-0.05 0.136781,-0.1867 0.236496,-0.2365 0.143607,-0.072 1.275375,0.072 1.418981,0 0.09971,-0.05 0.136781,-0.1867 0.236496,-0.2365 0.07051,-0.035 0.157665,0 0.236497,0 0.07883,0 0.157664,0 0.236497,0 0.07883,0 0.236496,-0.079 0.236496,0 0,0.079 -0.315329,0 -0.236496,0 0.236496,0 0.472993,0 0.70949,0 0.788322,0 1.576644,0 2.364967,0"
       id="path4435-5"
       inkscape:connector-curvature="0" />
    <path
       style="fill:none;fill-rule:evenodd;stroke:#000000;stroke-width:1px;stroke-linecap:butt;stroke-linejoin:miter;stroke-opacity:1"
       d="m 22.710429,1018.5393 c 0.888921,0.024 1.725483,0.3757 2.601464,0.473 0.3134,0.035 0.634324,-0.048 0.945987,0 0.718345,0.1105 1.407285,0.3828 2.12847,0.473 0.547564,0.068 1.103651,0 1.655477,0 0.630658,0 1.262712,-0.042 1.891973,0 0.556194,0.037 1.099976,0.1902 1.655478,0.2365 0.3928,0.033 0.789684,-0.033 1.182484,0 1.642935,0.1369 1.879801,0.3246 3.54745,0.7095 0.391673,0.09 0.797469,0.121 1.182483,0.2365 0.406621,0.122 0.775863,0.351 1.182484,0.473 0.385015,0.1155 0.792518,0.139 1.182483,0.2365 0.307678,0.077 0.888892,0.2772 1.182484,0.473 0.09276,0.062 0.136781,0.1866 0.236497,0.2365 0.141019,0.07 0.331974,-0.071 0.472993,0 0.09972,0.05 0.136781,0.1866 0.236497,0.2365 0.01237,0.01 0.697117,0.01 0.70949,0 0.09972,-0.05 0.136781,-0.1867 0.236496,-0.2365 0.143607,-0.072 1.275375,0.072 1.418981,0 0.09971,-0.05 0.136781,-0.1867 0.236496,-0.2365 0.07051,-0.035 0.157665,0 0.236497,0 0.07883,0 0.157664,0 0.236497,0 0.07883,0 0.236496,-0.079 0.236496,0 0,0.079 -0.315329,0 -0.236496,0 0.236496,0 0.472993,0 0.70949,0 0.788322,0 1.576644,0 2.364967,0"
       id="path4435-6"
       inkscape:connector-curvature="0" />
    <path
       style="fill:none;fill-rule:evenodd;stroke:#000000;stroke-width:1px;stroke-linecap:butt;stroke-linejoin:miter;stroke-opacity:1"
       d="m 17.980496,1014.2823 c 0.888921,0.024 1.725483,0.3757 2.601464,0.473 0.3134,0.035 0.634324,-0.048 0.945987,0 0.718345,0.1105 1.407285,0.3828 2.12847,0.473 0.547564,0.068 1.103651,0 1.655477,0 0.630658,0 1.262712,-0.042 1.891973,0 0.556194,0.037 1.099975,0.1902 1.655477,0.2365 0.3928,0.033 0.789684,-0.033 1.182484,0 1.642935,0.1369 1.879801,0.3246 3.54745,0.7095 0.391673,0.09 0.797469,0.121 1.182483,0.2365 0.406621,0.122 0.775863,0.351 1.182484,0.473 0.385015,0.1155 0.792518,0.139 1.182483,0.2365 0.307678,0.077 0.888892,0.2772 1.182484,0.473 0.09276,0.062 0.136781,0.1866 0.236497,0.2365 0.141019,0.07 0.331974,-0.071 0.472993,0 0.09972,0.05 0.136781,0.1866 0.236497,0.2365 0.01237,0.01 0.697117,0.01 0.70949,0 0.09972,-0.05 0.136781,-0.1867 0.236496,-0.2365 0.143607,-0.072 1.275375,0.072 1.418981,0 0.09971,-0.05 0.136781,-0.1867 0.236496,-0.2365 0.07051,-0.035 0.157665,0 0.236497,0 0.07883,0 0.157664,0 0.236497,0 0.07883,0 0.236496,-0.079 0.236496,0 0,0.079 -0.315329,0 -0.236496,0 0.236496,0 0.472993,0 0.70949,0 0.788322,0 1.576644,0 2.364967,0"
       id="path4435-3"
       inkscape:connector-curvature="0" />
    <path
       style="fill:none;fill-rule:evenodd;stroke:#000000;stroke-width:1px;stroke-linecap:butt;stroke-linejoin:miter;stroke-opacity:1"
       d="m 17.034509,1021.3772 c 0.888921,0.024 1.725483,0.3757 2.601464,0.473 0.3134,0.035 0.634324,-0.048 0.945987,0 0.718345,0.1105 1.407285,0.3828 2.12847,0.473 0.547564,0.068 1.103651,0 1.655477,0 0.630658,0 1.262712,-0.042 1.891973,0 0.556194,0.037 1.099975,0.1902 1.655477,0.2365 0.3928,0.033 0.789684,-0.033 1.182484,0 1.642935,0.1369 1.879801,0.3246 3.54745,0.7095 0.391673,0.09 0.797469,0.121 1.182483,0.2365 0.406621,0.122 0.775863,0.351 1.182484,0.473 0.385015,0.1155 0.792518,0.139 1.182483,0.2365 0.307678,0.077 0.888892,0.2772 1.182484,0.473 0.09276,0.062 0.136781,0.1866 0.236497,0.2365 0.141019,0.07 0.331974,-0.071 0.472993,0 0.09972,0.05 0.136781,0.1866 0.236497,0.2365 0.01237,0.01 0.697117,0.01 0.70949,0 0.09972,-0.05 0.136781,-0.1867 0.236496,-0.2365 0.143607,-0.072 1.275375,0.072 1.418981,0 0.09971,-0.05 0.136781,-0.1867 0.236496,-0.2365 0.07051,-0.035 0.157665,0 0.236497,0 0.07883,0 0.157664,0 0.236497,0 0.07883,0 0.236496,-0.079 0.236496,0 0,0.079 -0.315329,0 -0.236496,0 0.236496,0 0.472993,0 0.70949,0 0.788322,0 1.576644,0 2.364967,0"
       id="path4435-59"
       inkscape:connector-curvature="0" />
    <path
       style="fill:none;fill-rule:evenodd;stroke:#000000;stroke-width:1px;stroke-linecap:butt;stroke-linejoin:miter;stroke-opacity:1"
       d="m 47.772332,1016.8877 c -1.067839,0.1222 -2.007994,0.5761 -3.074457,0.7094 -0.23467,0.029 -0.47537,-0.033 -0.70949,0 -0.321767,0.046 -0.623463,0.1962 -0.945987,0.2365 -0.312894,0.039 -0.633093,-0.039 -0.945986,0 -0.475134,0.059 -1.184249,0.316 -1.655477,0.473 -0.236497,0.079 -0.463593,0.1956 -0.70949,0.2365 -0.233279,0.039 -0.489909,-0.088 -0.70949,0 -0.207024,0.083 -0.281798,0.3583 -0.472994,0.473 -0.213764,0.1283 -0.495726,0.1083 -0.70949,0.2365 -0.191196,0.1147 -0.298882,0.3337 -0.472993,0.473 -0.850586,0.6805 -0.669937,0.2462 -1.418981,1.1825 -0.110117,0.1376 -0.130732,0.332 -0.236496,0.473 -0.133783,0.1784 -0.339211,0.2946 -0.472994,0.473 -0.105764,0.141 -0.138717,0.3263 -0.236496,0.473 -0.06184,0.093 -0.174656,0.1437 -0.236497,0.2365 -0.09778,0.1466 -0.130732,0.332 -0.236497,0.473 -0.133782,0.1783 -0.315329,0.3153 -0.472993,0.473 -0.236497,0.2365 -0.472993,0.473 -0.70949,0.7095 -0.07883,0.079 -0.174656,0.1437 -0.236497,0.2365 -0.09778,0.1466 -0.138717,0.3263 -0.236497,0.4729 -0.06184,0.093 -0.169605,0.1474 -0.236496,0.2365 -0.17054,0.2274 -0.27201,0.5085 -0.472994,0.7095 -0.124644,0.1247 -0.315329,0.1577 -0.472993,0.2365 -0.236497,0.1577 -0.508507,0.272 -0.70949,0.473 -0.693724,0.6937 -0.173431,0.8041 -1.182484,1.1825 -2.658604,0.997 0.31005,-0.628 -2.364966,0.7095 -0.254326,0.1272 -0.828506,0.621 -1.182484,0.7095 -0.152957,0.038 -0.32342,-0.05 -0.472993,0 -0.105765,0.035 -0.143735,0.1746 -0.236497,0.2365 -0.146669,0.098 -0.305765,0.1807 -0.472993,0.2365 -0.43686,0.1456 -0.112123,-0.3609 -0.709491,0.2365 -0.05574,0.056 0.05574,0.1807 0,0.2365 -0.08018,0.08 -0.392812,-0.08 -0.472993,0 -0.05574,0.056 0.07883,0.2365 0,0.2365 -0.07883,0 0.05574,-0.2923 0,-0.2365 -0.124645,0.1246 -0.180754,0.3057 -0.236497,0.473 -0.02493,0.075 0.05574,0.1807 0,0.2365 -0.315329,0.3153 -0.236496,-0.3942 -0.236496,0.2365"
       id="path4488"
       inkscape:connector-curvature="0" />
    <path
       style="fill:none;fill-rule:evenodd;stroke:#000000;stroke-width:1px;stroke-linecap:butt;stroke-linejoin:miter;stroke-opacity:1"
       d="m 51.425797,1024.5307 c -1.067839,0.1222 -2.007994,0.5761 -3.074457,0.7094 -0.23467,0.029 -0.47537,-0.033 -0.70949,0 -0.321767,0.046 -0.623463,0.1962 -0.945987,0.2365 -0.312894,0.039 -0.633093,-0.039 -0.945986,0 -0.475134,0.059 -1.184249,0.316 -1.655477,0.473 -0.236497,0.079 -0.463593,0.1956 -0.70949,0.2365 -0.233279,0.039 -0.489909,-0.088 -0.70949,0 -0.207024,0.083 -0.281798,0.3583 -0.472994,0.473 -0.213764,0.1283 -0.495726,0.1083 -0.70949,0.2365 -0.191196,0.1147 -0.298882,0.3337 -0.472993,0.473 -0.850586,0.6805 -0.669937,0.2462 -1.418981,1.1825 -0.110117,0.1376 -0.130732,0.332 -0.236496,0.473 -0.133783,0.1784 -0.339211,0.2946 -0.472994,0.473 -0.105764,0.141 -0.138717,0.3263 -0.236496,0.473 -0.06184,0.093 -0.174656,0.1437 -0.236497,0.2365 -0.09778,0.1466 -0.130732,0.332 -0.236497,0.473 -0.133782,0.1783 -0.315329,0.3153 -0.472993,0.473 -0.236497,0.2365 -0.472993,0.473 -0.70949,0.7095 -0.07883,0.079 -0.174656,0.1437 -0.236497,0.2365 -0.09778,0.1466 -0.138717,0.3263 -0.236497,0.4729 -0.06184,0.093 -0.169605,0.1474 -0.236496,0.2365 -0.17054,0.2274 -0.27201,0.5085 -0.472994,0.7095 -0.124644,0.1247 -0.315329,0.1577 -0.472993,0.2365 -0.236497,0.1577 -0.508507,0.272 -0.70949,0.473 -0.693724,0.6937 -0.173431,0.8041 -1.182484,1.1825 -2.658604,0.997 0.31005,-0.628 -2.364966,0.7095 -0.254326,0.1272 -0.828506,0.621 -1.182484,0.7095 -0.152957,0.038 -0.32342,-0.05 -0.472993,0 -0.105765,0.035 -0.143735,0.1746 -0.236497,0.2365 -0.146669,0.098 -0.305765,0.1807 -0.472993,0.2365 -0.43686,0.1456 -0.112123,-0.3609 -0.709491,0.2365 -0.05574,0.056 0.05574,0.1807 0,0.2365 -0.08018,0.08 -0.392812,-0.08 -0.472993,0 -0.05574,0.056 0.07883,0.2365 0,0.2365 -0.07883,0 0.05574,-0.2923 0,-0.2365 -0.124645,0.1246 -0.180754,0.3057 -0.236497,0.473 -0.02493,0.075 0.05574,0.1807 0,0.2365 -0.315329,0.3153 -0.236496,-0.3942 -0.236496,0.2365"
       id="path4488-5"
       inkscape:connector-curvature="0" />
    <path
       style="fill:none;fill-rule:evenodd;stroke:#000000;stroke-width:1px;stroke-linecap:butt;stroke-linejoin:miter;stroke-opacity:1"
       d="m 41.492936,1005.3745 c -1.067839,0.1222 -2.007994,0.5761 -3.074457,0.7094 -0.23467,0.029 -0.47537,-0.033 -0.70949,0 -0.321767,0.046 -0.623463,0.1962 -0.945987,0.2365 -0.312894,0.039 -0.633093,-0.039 -0.945986,0 -0.475134,0.059 -1.184249,0.316 -1.655477,0.473 -0.236497,0.079 -0.463593,0.1956 -0.70949,0.2365 -0.233279,0.039 -0.489909,-0.088 -0.70949,0 -0.207024,0.083 -0.281798,0.3583 -0.472994,0.473 -0.213764,0.1283 -0.495726,0.1083 -0.70949,0.2365 -0.191196,0.1147 -0.298882,0.3337 -0.472993,0.473 -0.850586,0.6805 -0.669937,0.2462 -1.418981,1.1825 -0.110117,0.1376 -0.130732,0.332 -0.236496,0.473 -0.133783,0.1784 -0.339211,0.2946 -0.472994,0.473 -0.105764,0.141 -0.138717,0.3263 -0.236496,0.473 -0.06184,0.093 -0.174656,0.1437 -0.236497,0.2365 -0.09778,0.1466 -0.130732,0.332 -0.236497,0.473 -0.133782,0.1783 -0.315329,0.3153 -0.472993,0.473 -0.236497,0.2365 -0.472993,0.473 -0.70949,0.7095 -0.07883,0.079 -0.174656,0.1437 -0.236497,0.2365 -0.09778,0.1466 -0.138717,0.3263 -0.236497,0.4729 -0.06184,0.093 -0.169605,0.1474 -0.236496,0.2365 -0.17054,0.2274 -0.27201,0.5085 -0.472994,0.7095 -0.124644,0.1247 -0.315329,0.1577 -0.472993,0.2365 -0.236497,0.1577 -0.508507,0.272 -0.70949,0.473 -0.693724,0.6937 -0.173431,0.8041 -1.182484,1.1825 -2.658604,0.997 0.31005,-0.628 -2.364966,0.7095 -0.254326,0.1272 -0.828506,0.621 -1.182484,0.7095 -0.152957,0.038 -0.32342,-0.05 -0.472993,0 -0.105765,0.035 -0.143735,0.1746 -0.236497,0.2365 -0.146669,0.098 -0.305765,0.1807 -0.472993,0.2365 -0.43686,0.1456 -0.112123,-0.3609 -0.709491,0.2365 -0.05574,0.056 0.05574,0.1807 0,0.2365 -0.08018,0.08 -0.392812,-0.08 -0.472993,0 -0.05574,0.056 0.07883,0.2365 0,0.2365 -0.07883,0 0.05574,-0.2923 0,-0.2365 -0.124645,0.1246 -0.180754,0.3057 -0.236497,0.473 -0.02493,0.075 0.05574,0.1807 0,0.2365 -0.315329,0.3153 -0.236496,-0.3942 -0.236496,0.2365"
       id="path4488-8"
       inkscape:connector-curvature="0" />
    <path
       style="fill:none;fill-rule:evenodd;stroke:#000000;stroke-width:1px;stroke-linecap:butt;stroke-linejoin:miter;stroke-opacity:1"
       d="m 43.857903,1008.6855 c -1.067839,0.1222 -2.007994,0.5761 -3.074457,0.7094 -0.23467,0.029 -0.47537,-0.033 -0.70949,0 -0.321767,0.046 -0.623463,0.1962 -0.945987,0.2365 -0.312894,0.039 -0.633093,-0.039 -0.945986,0 -0.475134,0.059 -1.184249,0.316 -1.655477,0.473 -0.236497,0.079 -0.463593,0.1956 -0.70949,0.2365 -0.233279,0.039 -0.489909,-0.088 -0.70949,0 -0.207024,0.083 -0.281798,0.3583 -0.472994,0.473 -0.213764,0.1283 -0.495726,0.1083 -0.70949,0.2365 -0.191196,0.1147 -0.298882,0.3337 -0.472993,0.473 -0.850586,0.6805 -0.669937,0.2462 -1.418981,1.1825 -0.110117,0.1376 -0.130732,0.332 -0.236496,0.473 -0.133783,0.1784 -0.339211,0.2946 -0.472994,0.473 -0.105764,0.141 -0.138717,0.3263 -0.236496,0.473 -0.06184,0.093 -0.174656,0.1437 -0.236497,0.2365 -0.09778,0.1466 -0.130732,0.332 -0.236497,0.473 -0.133782,0.1783 -0.315329,0.3153 -0.472993,0.473 -0.236497,0.2365 -0.472993,0.473 -0.70949,0.7095 -0.07883,0.079 -0.174656,0.1437 -0.236497,0.2365 -0.09778,0.1466 -0.138717,0.3263 -0.236497,0.4729 -0.06184,0.093 -0.169605,0.1474 -0.236496,0.2365 -0.17054,0.2274 -0.27201,0.5085 -0.472994,0.7095 -0.124644,0.1247 -0.315329,0.1577 -0.472993,0.2365 -0.236497,0.1577 -0.508507,0.272 -0.70949,0.473 -0.693724,0.6937 -0.173431,0.8041 -1.182484,1.1825 -2.658604,0.9969 0.31005,-0.628 -2.364966,0.7094 -0.254326,0.1272 -0.828506,0.621 -1.182484,0.7095 -0.152957,0.038 -0.32342,-0.05 -0.472993,0 -0.105765,0.035 -0.143735,0.1746 -0.236497,0.2365 -0.146669,0.098 -0.305765,0.1807 -0.472993,0.2365 -0.43686,0.1456 -0.112123,-0.3609 -0.709491,0.2365 -0.05574,0.056 0.05574,0.1807 0,0.2365 -0.08018,0.08 -0.392812,-0.08 -0.472993,0 -0.05574,0.056 0.07883,0.2365 0,0.2365 -0.07883,0 0.05574,-0.2923 0,-0.2365 -0.124645,0.1246 -0.180754,0.3057 -0.236497,0.473 -0.02493,0.075 0.05574,0.1807 0,0.2365 -0.315329,0.3153 -0.236496,-0.3942 -0.236496,0.2365"
       id="path4488-7"
       inkscape:connector-curvature="0" />
    <path
       style="fill:none;fill-rule:evenodd;stroke:#000000;stroke-width:1px;stroke-linecap:butt;stroke-linejoin:miter;stroke-opacity:1"
       d="m 45.276883,1011.0504 c -1.067839,0.1222 -2.007994,0.5761 -3.074457,0.7094 -0.23467,0.029 -0.47537,-0.033 -0.70949,0 -0.321767,0.046 -0.623463,0.1962 -0.945987,0.2365 -0.312894,0.039 -0.633093,-0.039 -0.945986,0 -0.475134,0.059 -1.184249,0.316 -1.655477,0.473 -0.236497,0.079 -0.463593,0.1956 -0.70949,0.2365 -0.233279,0.039 -0.489909,-0.088 -0.70949,0 -0.207024,0.083 -0.281798,0.3583 -0.472994,0.473 -0.213764,0.1283 -0.495726,0.1083 -0.70949,0.2365 -0.191196,0.1147 -0.298882,0.3337 -0.472993,0.473 -0.850586,0.6805 -0.669937,0.2462 -1.418981,1.1825 -0.110117,0.1376 -0.130732,0.332 -0.236496,0.473 -0.133783,0.1784 -0.339211,0.2946 -0.472994,0.473 -0.105764,0.141 -0.138717,0.3263 -0.236496,0.473 -0.06184,0.093 -0.174656,0.1437 -0.236497,0.2365 -0.09778,0.1466 -0.130732,0.332 -0.236497,0.473 -0.133782,0.1783 -0.315329,0.3153 -0.472993,0.473 -0.236497,0.2365 -0.472993,0.473 -0.70949,0.7095 -0.07883,0.079 -0.174656,0.1437 -0.236497,0.2365 -0.09778,0.1466 -0.138717,0.3263 -0.236497,0.4729 -0.06184,0.093 -0.169605,0.1474 -0.236496,0.2365 -0.17054,0.2274 -0.27201,0.5085 -0.472994,0.7095 -0.124644,0.1247 -0.315329,0.1577 -0.472993,0.2365 -0.236497,0.1577 -0.508507,0.272 -0.70949,0.473 -0.693724,0.6937 -0.173431,0.8041 -1.182484,1.1825 -2.658604,0.997 0.31005,-0.628 -2.364966,0.7095 -0.254326,0.1272 -0.828506,0.621 -1.182484,0.7095 -0.152957,0.038 -0.32342,-0.05 -0.472993,0 -0.105765,0.035 -0.143735,0.1746 -0.236497,0.2365 -0.146669,0.098 -0.305765,0.1807 -0.472993,0.2365 -0.43686,0.1456 -0.112123,-0.3609 -0.709491,0.2365 -0.05574,0.056 0.05574,0.1807 0,0.2365 -0.08018,0.08 -0.392812,-0.08 -0.472993,0 -0.05574,0.056 0.07883,0.2365 0,0.2365 -0.07883,0 0.05574,-0.2923 0,-0.2365 -0.124645,0.1246 -0.180754,0.3057 -0.236497,0.473 -0.02493,0.075 0.05574,0.1807 0,0.2365 -0.315329,0.3153 -0.236496,-0.3942 -0.236496,0.2365"
       id="path4488-1"
       inkscape:connector-curvature="0" />
    <path
       style="fill:none;fill-rule:evenodd;stroke:#000000;stroke-width:1px;stroke-linecap:butt;stroke-linejoin:miter;stroke-opacity:1"
       d="m 32.506062,1025.4767 c -1.067839,0.1222 -2.007994,0.5761 -3.074457,0.7094 -0.23467,0.029 -0.47537,-0.033 -0.70949,0 -0.321767,0.046 -0.623463,0.1962 -0.945987,0.2365 -0.312894,0.039 -0.633093,-0.039 -0.945986,0 -0.475134,0.059 -1.184249,0.316 -1.655477,0.473 -0.236497,0.079 -0.463593,0.1956 -0.70949,0.2365 -0.233279,0.039 -0.489909,-0.088 -0.70949,0 -0.207024,0.083 -0.281798,0.3583 -0.472994,0.473 -0.213764,0.1283 -0.495726,0.1083 -0.70949,0.2365 -0.191196,0.1147 -0.298882,0.3337 -0.472993,0.473 -0.850586,0.6805 -0.669937,0.2462 -1.418981,1.1825 -0.110117,0.1376 -0.130732,0.332 -0.236496,0.473 -0.133783,0.1784 -0.339211,0.2946 -0.472994,0.473 -0.105764,0.141 -0.138717,0.3263 -0.236496,0.473 -0.06184,0.093 -0.174656,0.1437 -0.236497,0.2365 -0.09778,0.1466 -0.130732,0.332 -0.236497,0.473 -0.133782,0.1783 -0.315329,0.3153 -0.472993,0.473 -0.236497,0.2365 -0.472993,0.473 -0.70949,0.7095 -0.07883,0.079 -0.174656,0.1437 -0.236497,0.2365 -0.09778,0.1466 -0.138717,0.3263 -0.236497,0.4729 -0.06184,0.093 -0.169605,0.1474 -0.236496,0.2365 -0.17054,0.2274 -0.27201,0.5085 -0.472994,0.7095 -0.124644,0.1247 -0.315329,0.1577 -0.472993,0.2365 -0.236497,0.1577 -0.508507,0.272 -0.70949,0.473 -0.693724,0.6937 -0.173431,0.8041 -1.182484,1.1825 -2.658604,0.997 0.31005,-0.628 -2.364966,0.7095 -0.254326,0.1272 -0.828506,0.621 -1.182484,0.7095 -0.152957,0.038 -0.32342,-0.05 -0.472993,0 -0.105765,0.035 -0.143735,0.1746 -0.236497,0.2365 -0.146669,0.098 -0.3057655,0.1807 -0.4729935,0.2365 -0.43686,0.1456 -0.112123,-0.3609 -0.709491,0.2365 -0.05574,0.056 0.05574,0.1807 0,0.2365 -0.08018,0.08 -0.392812,-0.08 -0.472993,0 -0.05574,0.056 0.07883,0.2365 0,0.2365 -0.07883,0 0.05574,-0.2923 0,-0.2365 -0.124645,0.1246 -0.180754,0.3057 -0.236497,0.473 -0.02493,0.075 0.05574,0.1807 0,0.2365 -0.315329,0.3153 -0.236496,-0.3942 -0.236496,0.2365"
       id="path4488-0"
       inkscape:connector-curvature="0" />
    <path
       style="fill:none;fill-rule:evenodd;stroke:#000000;stroke-width:1px;stroke-linecap:butt;stroke-linejoin:miter;stroke-opacity:1"
       d="m 38.891473,1027.1322 c -1.067839,0.1222 -2.007994,0.5761 -3.074457,0.7094 -0.23467,0.029 -0.47537,-0.033 -0.70949,0 -0.321767,0.046 -0.623463,0.1962 -0.945987,0.2365 -0.312894,0.039 -0.633093,-0.039 -0.945986,0 -0.475134,0.059 -1.184249,0.316 -1.655477,0.473 -0.236497,0.079 -0.463593,0.1956 -0.70949,0.2365 -0.233279,0.039 -0.489909,-0.088 -0.70949,0 -0.207024,0.083 -0.281798,0.3583 -0.472994,0.473 -0.213764,0.1283 -0.495726,0.1083 -0.70949,0.2365 -0.191196,0.1147 -0.298882,0.3337 -0.472993,0.473 -0.850586,0.6805 -0.669937,0.2462 -1.418981,1.1825 -0.110117,0.1376 -0.130732,0.332 -0.236496,0.473 -0.133783,0.1784 -0.339211,0.2946 -0.472994,0.473 -0.105764,0.141 -0.138717,0.3263 -0.236496,0.473 -0.06184,0.093 -0.174656,0.1437 -0.236497,0.2365 -0.09778,0.1466 -0.130732,0.332 -0.236497,0.473 -0.133782,0.1783 -0.315329,0.3153 -0.472993,0.473 -0.236497,0.2365 -0.472993,0.473 -0.70949,0.7095 -0.07883,0.079 -0.174656,0.1437 -0.236497,0.2365 -0.09778,0.1466 -0.138717,0.3263 -0.236498,0.4729 -0.06184,0.093 -0.169605,0.1474 -0.236496,0.2365 -0.17054,0.2274 -0.27201,0.5085 -0.472994,0.7095 -0.124644,0.1247 -0.315329,0.1577 -0.472993,0.2365 -0.236497,0.1577 -0.508507,0.272 -0.70949,0.473 -0.693724,0.6937 -0.173431,0.8041 -1.182484,1.1825 -2.658604,0.997 0.31005,-0.628 -2.364966,0.7095 -0.254326,0.1272 -0.828506,0.621 -1.182484,0.7095 -0.152957,0.038 -0.32342,-0.05 -0.472993,0 -0.105765,0.035 -0.143735,0.1746 -0.236497,0.2365 -0.146669,0.098 -0.305765,0.1807 -0.472993,0.2365 -0.43686,0.1456 -0.112123,-0.3609 -0.709491,0.2365 -0.05574,0.056 0.05574,0.1807 0,0.2365 -0.08018,0.08 -0.392812,-0.08 -0.472993,0 -0.05574,0.056 0.07883,0.2365 0,0.2365 -0.07883,0 0.05574,-0.2923 0,-0.2365 -0.124645,0.1246 -0.180754,0.3057 -0.236497,0.473 -0.02493,0.075 0.05574,0.1807 0,0.2365 -0.315329,0.3153 -0.236496,-0.3942 -0.236496,0.2365"
       id="path4488-3"
       inkscape:connector-curvature="0" />
    <path
       style="fill:none;fill-rule:evenodd;stroke:#000000;stroke-width:1px;stroke-linecap:butt;stroke-linejoin:miter;stroke-opacity:1"
       d="m 55.209744,1030.4431 c -1.067839,0.1222 -2.007994,0.5761 -3.074457,0.7094 -0.23467,0.029 -0.47537,-0.033 -0.70949,0 -0.321767,0.046 -0.623463,0.1962 -0.945987,0.2365 -0.312894,0.039 -0.633093,-0.039 -0.945986,0 -0.475134,0.059 -1.184249,0.316 -1.655477,0.473 -0.236497,0.079 -0.463593,0.1956 -0.70949,0.2365 -0.233279,0.039 -0.489909,-0.088 -0.70949,0 -0.207024,0.083 -0.281798,0.3583 -0.472994,0.473 -0.213764,0.1283 -0.495726,0.1083 -0.70949,0.2365 -0.191196,0.1147 -0.298882,0.3337 -0.472993,0.473 -0.850586,0.6805 -0.669937,0.2462 -1.418981,1.1825 -0.110117,0.1376 -0.130732,0.332 -0.236496,0.473 -0.133783,0.1784 -0.339211,0.2946 -0.472994,0.473 -0.105764,0.141 -0.138717,0.3263 -0.236496,0.473 -0.06184,0.093 -0.174656,0.1437 -0.236497,0.2365 -0.09778,0.1466 -0.130732,0.332 -0.236497,0.473 -0.133782,0.1783 -0.315329,0.3153 -0.472993,0.473 -0.236497,0.2365 -0.472993,0.473 -0.70949,0.7095 -0.07883,0.079 -0.174656,0.1437 -0.236497,0.2365 -0.09778,0.1466 -0.138717,0.3263 -0.236497,0.4729 -0.06184,0.093 -0.169605,0.1474 -0.236496,0.2365 -0.17054,0.2274 -0.27201,0.5085 -0.472994,0.7095 -0.124644,0.1247 -0.315329,0.1577 -0.472993,0.2365 -0.236497,0.1577 -0.508507,0.272 -0.70949,0.473 -0.693724,0.6937 -0.173431,0.8041 -1.182484,1.1825 -2.658604,0.997 0.31005,-0.628 -2.364966,0.7095 -0.254326,0.1272 -0.828506,0.621 -1.182484,0.7095 -0.152957,0.038 -0.32342,-0.05 -0.472993,0 -0.105765,0.035 -0.143735,0.1746 -0.236497,0.2365 -0.146669,0.098 -0.305765,0.1807 -0.472993,0.2365 -0.43686,0.1456 -0.112123,-0.3609 -0.709491,0.2365 -0.05574,0.056 0.05574,0.1807 0,0.2365 -0.08018,0.08 -0.392812,-0.08 -0.472993,0 -0.05574,0.056 0.07883,0.2365 0,0.2365 -0.07883,0 0.05574,-0.2923 0,-0.2365 -0.124645,0.1246 -0.180754,0.3057 -0.236497,0.473 -0.02493,0.075 0.05574,0.1807 0,0.2365 -0.315329,0.3153 -0.236496,-0.3942 -0.236496,0.2365"
       id="path4488-78"
       inkscape:connector-curvature="0" />
  </g>
</svg>
