<?xml version="1.0" encoding="UTF-8" standalone="no"?>
<!-- Created with Inkscape (http://www.inkscape.org/) -->

<svg
   xmlns:dc="http://purl.org/dc/elements/1.1/"
   xmlns:cc="http://creativecommons.org/ns#"
   xmlns:rdf="http://www.w3.org/1999/02/22-rdf-syntax-ns#"
   xmlns:svg="http://www.w3.org/2000/svg"
   xmlns="http://www.w3.org/2000/svg"
   xmlns:sodipodi="http://sodipodi.sourceforge.net/DTD/sodipodi-0.dtd"
   xmlns:inkscape="http://www.inkscape.org/namespaces/inkscape"
   width="168"
   height="105"
   viewBox="0 0 168 105"
   id="svg2"
   version="1.1"
   inkscape:version="0.91 r13725"
   sodipodi:docname="Controls_Use.svg"
   inkscape:export-filename="C:\Users\David.Chong\Desktop\Mycoventure\android\assets\ControlsUse.png"
   inkscape:export-xdpi="90"
   inkscape:export-ydpi="90">
  <defs
     id="defs4" />
  <sodipodi:namedview
     id="base"
     pagecolor="#ffffff"
     bordercolor="#666666"
     borderopacity="1.0"
     inkscape:pageopacity="0.0"
     inkscape:pageshadow="2"
     inkscape:zoom="1"
     inkscape:cx="190.19208"
     inkscape:cy="144.49443"
     inkscape:document-units="px"
     inkscape:current-layer="layer1"
     showgrid="false"
     inkscape:window-width="1366"
     inkscape:window-height="706"
     inkscape:window-x="-8"
     inkscape:window-y="-8"
     inkscape:window-maximized="1"
     units="px" />
  <metadata
     id="metadata7">
    <rdf:RDF>
      <cc:Work
         rdf:about="">
        <dc:format>image/svg+xml</dc:format>
        <dc:type
           rdf:resource="http://purl.org/dc/dcmitype/StillImage" />
        <dc:title></dc:title>
      </cc:Work>
    </rdf:RDF>
  </metadata>
  <g
     inkscape:label="Layer 1"
     inkscape:groupmode="layer"
     id="layer1"
     transform="translate(0,-947.36224)">
    <g
       id="g4142"
       transform="matrix(0.84214358,0,0,0.54426024,-0.21469624,481.69624)">
      <path
         sodipodi:nodetypes="caaaaaaaaaaaaaaaaaaaaaaaaaaaaaaaaaaccc"
         inkscape:connector-curvature="0"
         id="path4140"
         d="m 198.52245,1000.4273 c 0,0 -10.71788,-8.24937 -14.87035,-13.37094 -8.72652,-10.7631 -14.69991,-22.60018 -20.47106,-35.69287 -5.59072,-12.68336 -6.91864,-29.28593 -13.4462,-40.91742 -6.78463,-12.08953 -16.55748,-19.66596 -25.54778,-27.89825 -8.47233,-7.75798 -17.05064,-15.9977 -26.590675,-20.10365 -8.653393,-3.72434 -17.899788,-3.09915 -26.892411,-3.71977 -8.50694,-0.58708 -17.102321,-1.64085 -25.547787,0 -6.435072,1.25027 -13.240558,2.47923 -18.824686,7.43954 -3.92132,3.48325 -7.723291,8.52711 -9.412345,14.87906 -1.07177,4.03056 1.160722,9.04452 0,13.01919 -1.712804,5.86518 -7.4044125,7.36884 -9.4123436,13.01917 -1.3769756,3.87482 -2.3098731,8.87349 -1.344618,13.01919 0.8043165,3.45448 5.3784836,3.7802 5.3784826,7.43953 -1e-6,6.40386 -7.6995424,7.15402 -9.4123472,13.01918 -0.9949065,3.40688 -0.7052615,7.59333 0,11.1593 0.7013079,3.54598 2.2296588,6.77978 4.0338646,9.29943 1.8747939,2.61821 5.2303706,2.45656 6.7231006,5.57964 1.468062,3.07147 0.131538,7.8466 1.344619,11.15931 1.467905,4.00859 3.884353,7.63553 6.723106,9.29942 2.922512,1.71298 6.357736,1.07499 9.412341,0 6.332871,-2.22872 11.371583,-9.66415 17.480068,-13.0192 6.501511,-3.5709 13.256029,-7.99396 20.169304,-7.43953 4.662716,0.37393 10.117384,1.86102 13.169672,7.16481 3.321743,5.77202 5.757503,15.37616 3.055883,22.41713 -1.871822,4.87833 -7.479878,7.44563 -11.963314,10.12903 -5.332803,3.1918 -11.844652,3.9487 -17.341801,6.8483 -3.350163,1.7671 -7.375702,3.1724 -9.412343,6.3659 -3.038688,4.7647 -3.995947,11.2409 -2.689242,16.739 0.884449,3.7214 3.317,7.5589 6.723102,9.2994 4.390277,2.2435 9.890074,0.5387 14.790827,0 6.389914,-0.7024 13.218326,-1.0441 18.824684,-4.1894 5.068144,-2.8434 7.829537,-8.6099 12.101588,-12.5495 5.537001,-5.1061 10.364801,-11.8481 17.480071,-14.3187 7.93058,-2.7537 17.04596,-1.6218 25.18113,0.4509 5.38925,1.3731 10.23896,4.6181 14.79083,7.7198 22.93809,16.8106 7.37172,4.0629 22.93809,16.8106 z"
         style="fill:#ffb380;fill-rule:evenodd;stroke:#000000;stroke-width:2.95517111;stroke-linecap:round;stroke-linejoin:round;stroke-miterlimit:4;stroke-dasharray:none;stroke-opacity:1" />
      <path
         sodipodi:nodetypes="caac"
         inkscape:connector-curvature="0"
         id="path4142"
         d="m 14.220002,965.18555 c 0,0 11.091884,-9.67408 17.114228,-13.15136 7.311769,-4.2218 14.959274,-7.82054 22.818964,-9.20594 10.379552,-1.82957 31.376078,1.31512 31.376078,1.31512"
         style="fill:none;fill-rule:evenodd;stroke:#000000;stroke-width:2.95517111;stroke-linecap:round;stroke-linejoin:round;stroke-miterlimit:4;stroke-dasharray:none;stroke-opacity:1" />
      <path
         sodipodi:nodetypes="caac"
         inkscape:connector-curvature="0"
         id="path4142-0"
         d="m 12.58895,927.76197 c 0,0 11.091883,-9.67407 17.114228,-13.15136 7.31177,-4.22181 14.959273,-7.82056 22.818966,-9.20595 10.379551,-1.82957 31.376073,1.31512 31.376073,1.31512"
         style="fill:none;fill-rule:evenodd;stroke:#000000;stroke-width:2.95517111;stroke-linecap:round;stroke-linejoin:round;stroke-miterlimit:4;stroke-dasharray:none;stroke-opacity:1" />
      <path
         sodipodi:nodetypes="caac"
         inkscape:connector-curvature="0"
         id="path4142-6"
         d="m 18.090136,893.68693 c 0,0 11.091881,-9.67408 17.114229,-13.15137 7.311766,-4.22181 14.959272,-7.82057 22.818959,-9.20595 10.379558,-1.82958 31.376081,1.31513 31.376081,1.31513"
         style="fill:none;fill-rule:evenodd;stroke:#000000;stroke-width:2.95517111;stroke-linecap:round;stroke-linejoin:round;stroke-miterlimit:4;stroke-dasharray:none;stroke-opacity:1" />
      <path
         sodipodi:nodetypes="aaaaaa"
         inkscape:connector-curvature="0"
         id="path4180"
         d="m 58.277544,1022.9768 c 3.74143,3.019 6.373344,12.5224 4.241261,18.0369 -1.32226,3.4199 -5.159962,2.5921 -7.775649,2.1219 -2.304183,-0.414 -5.262148,-1.1767 -6.361894,-4.2439 -1.358435,-3.7887 -0.530678,-9.5706 1.413754,-12.7318 1.977006,-3.2143 5.915432,-5.2544 8.482528,-3.1831 z"
         style="fill:none;fill-rule:evenodd;stroke:#000000;stroke-width:2.28866339;stroke-linecap:round;stroke-linejoin:round;stroke-miterlimit:4;stroke-dasharray:none;stroke-opacity:1" />
      <path
         sodipodi:nodetypes="aaaaaa"
         inkscape:connector-curvature="0"
         id="path4180-2"
         d="m 28.556309,961.86476 c 3.651887,2.49993 6.21994,11.67359 4.241285,16.91518 -1.298658,3.44024 -5.159977,2.59217 -7.775646,2.122 -2.304183,-0.41413 -5.402248,-1.07254 -6.361909,-4.24395 -1.008266,-3.33202 0.48512,-7.83065 2.161013,-10.48872 1.890163,-2.9979 5.233269,-6.01727 7.735257,-4.30451 z"
         style="fill:none;fill-rule:evenodd;stroke:#000000;stroke-width:2.28866339;stroke-linecap:round;stroke-linejoin:round;stroke-miterlimit:4;stroke-dasharray:none;stroke-opacity:1" />
      <path
         sodipodi:nodetypes="aaaaaa"
         inkscape:connector-curvature="0"
         id="path4180-2-9"
         d="m 17.094965,935.66612 c 3.651889,2.49993 6.219938,11.67358 4.241284,16.91517 -1.298654,3.44024 -5.159976,2.59217 -7.775645,2.122 -2.304183,-0.41413 -5.402249,-1.07254 -6.3619089,-4.24394 -1.0082662,-3.33203 0.4851209,-7.83066 2.1610124,-10.48873 1.8901645,-2.99789 5.2332695,-6.01726 7.7352575,-4.3045 z"
         style="fill:none;fill-rule:evenodd;stroke:#000000;stroke-width:2.28866339;stroke-linecap:round;stroke-linejoin:round;stroke-miterlimit:4;stroke-dasharray:none;stroke-opacity:1" />
      <path
         sodipodi:nodetypes="aaaaaa"
         inkscape:connector-curvature="0"
         id="path4180-2-9-5"
         d="m 22.043105,899.59256 c 2.524816,1.29204 4.994798,6.34502 4.241285,10.18577 -0.809016,4.12368 -4.954785,4.74325 -7.775645,5.48671 -2.097516,0.55282 -5.177909,1.77762 -6.361907,-0.87926 -1.355564,-3.04185 0.485119,-7.83066 2.16101,-10.48872 1.890164,-2.9979 5.132451,-5.63646 7.735257,-4.3045 z"
         style="fill:none;fill-rule:evenodd;stroke:#000000;stroke-width:2.28866339;stroke-linecap:round;stroke-linejoin:round;stroke-miterlimit:4;stroke-dasharray:none;stroke-opacity:1" />
      <path
         sodipodi:nodetypes="aaaaaa"
         inkscape:connector-curvature="0"
         id="path4180-2-9-5-9"
         d="m 30.873024,870.27559 c 2.348721,1.09722 4.872547,5.49575 4.241287,9.06421 -0.734979,4.15479 -4.988637,4.49658 -7.775647,5.48671 -2.064282,0.73337 -5.081281,2.78065 -6.361905,0.24232 -1.47192,-2.9175 0.485117,-7.83067 2.161012,-10.48873 1.89016,-2.99791 5.109565,-5.53113 7.735253,-4.30451 z"
         style="fill:none;fill-rule:evenodd;stroke:#000000;stroke-width:2.28866339;stroke-linecap:round;stroke-linejoin:round;stroke-miterlimit:4;stroke-dasharray:none;stroke-opacity:1" />
    </g>
  </g>
</svg>
