<?xml version="1.0" encoding="UTF-8" standalone="no"?>
<!-- Created with Inkscape (http://www.inkscape.org/) -->

<svg
   xmlns:dc="http://purl.org/dc/elements/1.1/"
   xmlns:cc="http://creativecommons.org/ns#"
   xmlns:rdf="http://www.w3.org/1999/02/22-rdf-syntax-ns#"
   xmlns:svg="http://www.w3.org/2000/svg"
   xmlns="http://www.w3.org/2000/svg"
   xmlns:sodipodi="http://sodipodi.sourceforge.net/DTD/sodipodi-0.dtd"
   xmlns:inkscape="http://www.inkscape.org/namespaces/inkscape"
   width="256"
   height="256"
   viewBox="0 0 256 256"
   id="svg2"
   version="1.1"
   inkscape:version="0.91 r13725"
   sodipodi:docname="Culture.svg"
   inkscape:export-filename="C:\Users\David\Desktop\Mycoventure\android\assets\Culture.png"
   inkscape:export-xdpi="30.958923"
   inkscape:export-ydpi="30.958923">
  <defs
     id="defs4">
    <filter
       style="color-interpolation-filters:sRGB;"
       inkscape:label="Feather"
       id="filter4280">
      <feGaussianBlur
         stdDeviation="5.22"
         result="blur"
         id="feGaussianBlur4282" />
      <feComposite
         in="SourceGraphic"
         in2="blur"
         operator="atop"
         result="composite1"
         id="feComposite4284" />
      <feComposite
         in2="composite1"
         operator="in"
         result="composite2"
         id="feComposite4286" />
      <feComposite
         in2="composite2"
         operator="in"
         result="composite3"
         id="feComposite4288" />
    </filter>
  </defs>
  <sodipodi:namedview
     id="base"
     pagecolor="#ffffff"
     bordercolor="#666666"
     borderopacity="1.0"
     inkscape:pageopacity="0.0"
     inkscape:pageshadow="2"
     inkscape:zoom="1.4"
     inkscape:cx="65.883255"
     inkscape:cy="120"
     inkscape:document-units="px"
     inkscape:current-layer="layer1"
     showgrid="false"
     units="px"
     inkscape:window-width="1366"
     inkscape:window-height="705"
     inkscape:window-x="-8"
     inkscape:window-y="-8"
     inkscape:window-maximized="1" />
  <metadata
     id="metadata7">
    <rdf:RDF>
      <cc:Work
         rdf:about="">
        <dc:format>image/svg+xml</dc:format>
        <dc:type
           rdf:resource="http://purl.org/dc/dcmitype/StillImage" />
        <dc:title></dc:title>
      </cc:Work>
    </rdf:RDF>
  </metadata>
  <g
     inkscape:label="Layer 1"
     inkscape:groupmode="layer"
     id="layer1"
     transform="translate(0,-796.36216)">
    <g
       id="g4290"
       transform="matrix(1.0821408,0,0,1.2785689,-6.4896072,-264.06851)">
      <ellipse
         transform="matrix(0.86356704,0.50423404,-0.52298563,0.8523415,0,0)"
         ry="63.649605"
         rx="114.23933"
         cy="764.3877"
         cx="591.37738"
         id="path3336-9-9-0"
         style="opacity:1;fill:#55ddff;stroke:#000000;stroke-width:1.55883336" />
      <ellipse
         transform="matrix(0.86356704,0.50423404,-0.52298563,0.8523415,0,0)"
         ry="63.649605"
         rx="114.23933"
         cy="764.38745"
         cx="591.37683"
         id="path3336-9-9-0-1"
         style="opacity:0.62000002;fill:#dde9af;stroke:#000000;stroke-width:1.55883336" />
      <ellipse
         transform="matrix(0.85734622,0.51474018,-0.51243171,0.85872798,0,0)"
         ry="70.126122"
         rx="124.21836"
         cy="733.81842"
         cx="579.89929"
         id="path3336-9-9"
         style="opacity:1;fill:#55ddff;stroke:#000000;stroke-width:1.70618773" />
      <ellipse
         transform="matrix(0.85734622,0.51474018,-0.51243171,0.85872798,0,0)"
         ry="70.126122"
         rx="124.21836"
         cy="720.56342"
         cx="581.47485"
         id="path3336-9"
         style="opacity:1;fill:#55ddff;stroke:#000000;stroke-width:1.70618773" />
      <path
         sodipodi:nodetypes="sssssss"
         inkscape:connector-curvature="0"
         id="path3336-9-9-0-1-3"
         d="m 712.58681,742.61794 c 1.54791,41.28235 -55.69953,70.10629 -126.33783,68.65621 -72.52237,-1.48875 -106.28026,-34.58617 -115.32226,-50.35384 -9.68162,-16.88306 -5.29941,-23.59871 10.63147,-40.40197 15.93088,-16.80326 43.9076,-33.09673 73.31573,-40.88775 31.98291,-8.47316 88.62265,-1.54165 120.23732,20.52867 19.9783,13.94692 36.61928,19.62183 37.47557,42.45868 z"
         style="opacity:0.62000002;fill:#dde9af;stroke:#000000;stroke-width:1.74696207"
         transform="matrix(0.86356704,0.50423404,-0.52298563,0.8523415,0,0)" />
      <path
         sodipodi:nodetypes="cssssssc"
         inkscape:connector-curvature="0"
         id="path4233"
         d="m 745.97771,717.9848 c 4.33716,24.80156 -20.26016,23.37587 -57.29141,23.37587 -18.51563,0 -43.48586,9.71446 -55.61971,0.85972 -12.13384,-8.85473 -5.11906,-32.54319 -5.11906,-46.05506 0,-13.51188 -4.6088,-28.04329 7.52504,-36.89803 12.13385,-8.85474 32.74699,-1.41999 51.26261,-1.41999 18.51563,0 38.13922,-7.68383 50.27307,1.17091 12.13385,8.85474 8.49064,24.55486 8.49064,38.06674"
         style="opacity:0.553;fill:#f4eed7;stroke:none;filter:url(#filter4280)"
         transform="matrix(0.82791479,0.56085391,-0.63414671,0.77321274,0,0)" />
    </g>
  </g>
</svg>
