<?xml version="1.0" encoding="UTF-8" standalone="no"?>
<!-- Created with Inkscape (http://www.inkscape.org/) -->

<svg
   xmlns:dc="http://purl.org/dc/elements/1.1/"
   xmlns:cc="http://creativecommons.org/ns#"
   xmlns:rdf="http://www.w3.org/1999/02/22-rdf-syntax-ns#"
   xmlns:svg="http://www.w3.org/2000/svg"
   xmlns="http://www.w3.org/2000/svg"
   xmlns:sodipodi="http://sodipodi.sourceforge.net/DTD/sodipodi-0.dtd"
   xmlns:inkscape="http://www.inkscape.org/namespaces/inkscape"
   width="64"
   height="64"
   viewBox="0 0 64 64"
   id="svg4379"
   version="1.1"
   inkscape:version="0.91 r13725"
   sodipodi:docname="LogSubstrate.svg"
   inkscape:export-filename="C:\Users\David.Chong\Desktop\Mycoventure\android\assets\LogSubstrate.png"
   inkscape:export-xdpi="90"
   inkscape:export-ydpi="90">
  <defs
     id="defs4381" />
  <sodipodi:namedview
     id="base"
     pagecolor="#ffffff"
     bordercolor="#666666"
     borderopacity="1.0"
     inkscape:pageopacity="0.0"
     inkscape:pageshadow="2"
     inkscape:zoom="8.2968735"
     inkscape:cx="38.826307"
     inkscape:cy="35.979632"
     inkscape:document-units="px"
     inkscape:current-layer="layer1"
     showgrid="false"
     units="px"
     inkscape:window-width="1366"
     inkscape:window-height="706"
     inkscape:window-x="-8"
     inkscape:window-y="-8"
     inkscape:window-maximized="1" />
  <metadata
     id="metadata4384">
    <rdf:RDF>
      <cc:Work
         rdf:about="">
        <dc:format>image/svg+xml</dc:format>
        <dc:type
           rdf:resource="http://purl.org/dc/dcmitype/StillImage" />
        <dc:title></dc:title>
      </cc:Work>
    </rdf:RDF>
  </metadata>
  <g
     inkscape:label="Layer 1"
     inkscape:groupmode="layer"
     id="layer1"
     transform="translate(0,-988.36215)">
    <g
       id="g4232"
       transform="matrix(1.2818859,0,0,1.2285029,-8.7564611,-235.58616)">
      <path
         sodipodi:nodetypes="ccaaccc"
         inkscape:connector-curvature="0"
         id="path4176"
         d="M 8.0903393,1008.5238 7.3377496,1039.38 c 0,0 9.6231874,5.9737 15.0517944,7.1496 7.295044,1.5802 15.369615,2.1605 22.389543,-0.3763 4.614988,-1.6677 11.476993,-9.2192 11.476993,-9.2192 l -0.188147,-28.5984 z"
         style="fill:#502d16;fill-rule:evenodd;stroke:#000000;stroke-width:1;stroke-linecap:butt;stroke-linejoin:miter;stroke-miterlimit:4;stroke-dasharray:none;stroke-opacity:1" />
      <ellipse
         ry="12.013354"
         rx="24.148865"
         cy="1008.8059"
         cx="31.796915"
         id="path4174"
         style="opacity:1;fill:#d3bc5f;fill-opacity:1;fill-rule:nonzero;stroke:#000000;stroke-width:1;stroke-linecap:round;stroke-linejoin:round;stroke-miterlimit:4;stroke-dasharray:none;stroke-opacity:1" />
      <ellipse
         ry="1.5992532"
         rx="3.4807274"
         cy="1008.4297"
         cx="32.079136"
         id="path4178"
         style="opacity:1;fill:none;fill-opacity:1;fill-rule:nonzero;stroke:#000000;stroke-width:1;stroke-linecap:round;stroke-linejoin:round;stroke-miterlimit:4;stroke-dasharray:none;stroke-opacity:1" />
      <ellipse
         ry="3.6009736"
         rx="7.9283643"
         cy="1008.3356"
         cx="31.985062"
         id="path4178-9"
         style="opacity:1;fill:none;fill-opacity:1;fill-rule:nonzero;stroke:#000000;stroke-width:1;stroke-linecap:round;stroke-linejoin:round;stroke-miterlimit:4;stroke-dasharray:none;stroke-opacity:1" />
      <ellipse
         ry="7.5049062"
         rx="13.337477"
         cy="1008.3356"
         cx="32.361359"
         id="path4178-3"
         style="opacity:1;fill:none;fill-opacity:1;fill-rule:nonzero;stroke:#000000;stroke-width:1;stroke-linecap:round;stroke-linejoin:round;stroke-miterlimit:4;stroke-dasharray:none;stroke-opacity:1" />
      <ellipse
         ry="9.7637339"
         rx="19.359253"
         cy="1008.7119"
         cx="32.361359"
         id="path4178-3-9"
         style="opacity:1;fill:none;fill-opacity:1;fill-rule:nonzero;stroke:#000000;stroke-width:1;stroke-linecap:round;stroke-linejoin:round;stroke-miterlimit:4;stroke-dasharray:none;stroke-opacity:1" />
      <path
         inkscape:connector-curvature="0"
         id="path4216"
         d="m 15.804384,1021.8823 c -0.125432,0.3135 -0.294382,0.6131 -0.376295,0.9407 -0.04563,0.1825 0.02661,0.3782 0,0.5644 -0.0654,0.4579 -0.529365,1.8066 -0.564442,2.0697 -0.06631,0.4973 0,1.0034 0,1.5051 0,1.5679 0,3.1358 0,4.7037 0,0.5645 0,1.1289 0,1.6934 0,0.1881 0.08414,0.3961 0,0.5644 -0.02805,0.056 -0.143801,-0.044 -0.188148,0 -0.734289,0.7343 0.04355,0.101 -0.188147,0.5644 -0.03966,0.079 -0.148483,0.1089 -0.188148,0.1882 -0.02805,0.056 0,0.1254 0,0.1881 0,0.063 0,0.1255 0,0.1882 0,0.3136 0,0.6271 0,0.9407"
         style="fill:none;fill-rule:evenodd;stroke:#000000;stroke-width:1px;stroke-linecap:butt;stroke-linejoin:miter;stroke-opacity:1" />
      <path
         inkscape:connector-curvature="0"
         id="path4218"
         d="m 28.033967,1024.5163 c -0.31358,0.2509 -0.679395,0.4477 -0.940738,0.7526 -0.129068,0.1506 -0.08611,0.3944 -0.188147,0.5645 -0.564442,0.9407 -0.188147,0 -0.564442,0.5644 -0.07779,0.1167 -0.08899,0.2771 -0.188148,0.3763 -0.04435,0.044 -0.1438,-0.044 -0.188147,0 -0.04435,0.044 0.01983,0.1287 0,0.1881 -0.04435,0.1331 -0.110358,0.2597 -0.188148,0.3763 -0.0492,0.074 -0.138949,0.1144 -0.188147,0.1882 -0.07779,0.1167 -0.110358,0.2596 -0.188147,0.3763 -0.0492,0.074 -0.148483,0.1088 -0.188148,0.1881 -0.02805,0.056 0.02805,0.1321 0,0.1882 -0.03966,0.079 -0.1601,0.104 -0.188147,0.1881 -0.03966,0.119 0.03966,0.2573 0,0.3763 -0.05609,0.1683 -0.296965,0.2177 -0.376295,0.3763 -0.02805,0.056 0,0.1254 0,0.1882 0,0.2508 0,0.5017 0,0.7526 0,0.5644 0,1.1288 0,1.6933 0,0.5644 0,1.1289 0,1.6933 0,0.2157 -0.04873,0.5577 0,0.7526 0.03401,0.136 0.125431,0.2509 0.188147,0.3763 0.06272,0.2509 0.145637,0.4975 0.188148,0.7526 0.02062,0.1237 0,0.2508 0,0.3763 0.06272,0.3136 0.110587,0.6305 0.188147,0.9407 0.0962,0.3848 0.298506,0.74 0.376295,1.1289 0.0369,0.1845 0,0.3763 0,0.5644 0,0.5645 0,1.1289 0,1.6934"
         style="fill:none;fill-rule:evenodd;stroke:#000000;stroke-width:1px;stroke-linecap:butt;stroke-linejoin:miter;stroke-opacity:1" />
      <path
         inkscape:connector-curvature="0"
         id="path4220"
         d="m 22.201396,1023.3874 c -2.205842,1.103 -0.440175,-0.06 -0.752589,0.5645 -0.07933,0.1586 -0.296965,0.2176 -0.376295,0.3763 -0.08869,0.1774 -0.08975,0.3922 -0.188148,0.5644 -0.155578,0.2723 -0.424205,0.4721 -0.564442,0.7526 -0.0058,0.012 -0.364793,1.4707 -0.376295,1.5052 -0.204723,0.6142 -0.245791,0.1577 -0.376295,0.9407 -0.03093,0.1856 0.02334,0.3778 0,0.5645 -0.03966,0.3173 -0.152832,0.6229 -0.188147,0.9407 -0.0277,0.2493 0,0.5017 0,0.7526 0,0.5644 0,1.1289 0,1.6933 0,1.5679 0,3.1358 0,4.7037 0,0.8153 0,1.6306 0,2.4459 0,0.081 0.02546,1.078 0,1.1289 -0.03966,0.079 -0.148483,0.1088 -0.188148,0.1882 -0.06112,0.1222 0.06112,1.0066 0,1.1288 -0.03966,0.079 -0.148482,0.1089 -0.188147,0.1882 -0.02474,0.049 0,0.6542 0,0.7526"
         style="fill:none;fill-rule:evenodd;stroke:#000000;stroke-width:1px;stroke-linecap:butt;stroke-linejoin:miter;stroke-opacity:1" />
      <path
         inkscape:connector-curvature="0"
         id="path4222"
         d="m 36.124306,1026.2097 c -1.344351,1.1203 -0.909828,0.5026 -1.50518,1.6933 -0.188147,0.3763 -0.45604,0.7224 -0.564442,1.1289 -0.146331,0.5487 -0.08188,1.1354 -0.188147,1.6933 -0.145153,0.762 -0.39965,1.4997 -0.564443,2.2578 -0.454223,2.0894 -0.337824,1.9115 -0.564442,3.9511 -0.05584,0.5025 -0.154513,1.0006 -0.188147,1.5051 -0.0292,0.4381 0,0.8781 0,1.3171 0,0.5644 0,1.1289 0,1.6933 0,0.5644 0,1.1289 0,1.6933 0,0.3136 -0.0615,0.6333 0,0.9408 -0.113402,0.3405 0.304788,0.3499 0.376295,0.5644 0.03966,0.119 -0.03966,0.2573 0,0.3763 0.05609,0.1683 0.296965,0.2176 0.376294,0.3763 0.02805,0.056 -0.04435,0.1438 0,0.1881 0.250864,0.2509 0.188148,-0.3135 0.188148,0.1882"
         style="fill:none;fill-rule:evenodd;stroke:#000000;stroke-width:1px;stroke-linecap:butt;stroke-linejoin:miter;stroke-opacity:1" />
      <path
         inkscape:connector-curvature="0"
         id="path4224"
         d="m 41.768729,1026.7741 c 0,6.2716 0,12.5432 0,18.8147"
         style="fill:none;fill-rule:evenodd;stroke:#000000;stroke-width:1px;stroke-linecap:butt;stroke-linejoin:miter;stroke-opacity:1" />
      <path
         inkscape:connector-curvature="0"
         id="path4226"
         d="m 47.977594,1025.2689 c 0,1.1916 0,2.3832 0,3.5748 0,1.1103 -0.04667,1.46 0.188147,2.6341 0.08954,0.4477 0.242022,0.8806 0.376295,1.317 0.116649,0.3791 0.250863,0.7526 0.376295,1.1289 0.06272,0.1882 0.114491,0.3803 0.188147,0.5644 0.05208,0.1303 0.143801,0.2433 0.188148,0.3763 0.03966,0.119 -0.05609,0.2641 0,0.3763 0.03966,0.079 0.125431,0.1255 0.188147,0.1882 0.06272,0.063 0.108818,0.1485 0.188148,0.1881 0.05609,0.028 0.132052,-0.028 0.188147,0 0.783024,0.3915 -0.201136,-0.013 0.188147,0.3763 0.04435,0.044 0.132053,-0.028 0.188148,0 0.07933,0.04 0.125431,0.1255 0.188147,0.1882 0.06272,0.063 0.148483,0.1088 0.188148,0.1881 0.02805,0.056 -0.01983,0.1287 0,0.1882 0.04435,0.133 0.1438,0.2432 0.188147,0.3763 0.03633,0.109 0,0.5895 0,0.7526 0,0.5644 0,1.1288 0,1.6933"
         style="fill:none;fill-rule:evenodd;stroke:#000000;stroke-width:1px;stroke-linecap:butt;stroke-linejoin:miter;stroke-opacity:1" />
      <path
         inkscape:connector-curvature="0"
         id="path4228"
         d="m 53.245722,1020.7534 c 0,0.7526 0,1.5052 0,2.2578 0,0.1254 -0.01774,0.2521 0,0.3762 0.163938,1.1476 0.126156,0.6297 0.376294,1.5052 0.07104,0.2487 0.106376,0.5073 0.188148,0.7526 0.245051,0.7352 0.290344,0.089 0.75259,1.1289 0.129878,0.2922 0.110587,0.6305 0.188147,0.9407 0.0481,0.1924 0.114491,0.3803 0.188147,0.5645 0.0104,0.026 0.37452,0.7437 0.376295,0.7526 0.0494,0.2469 0,0.8297 0,1.1289 0,0.7525 0,1.5051 0,2.2577 0,0.1515 -0.03936,0.6345 0,0.7526 0.04435,0.1331 0.160645,0.2388 0.188148,0.3763 0.04986,0.2493 0,0.6582 0,0.9407 0,0.6899 0,1.3798 0,2.0697"
         style="fill:none;fill-rule:evenodd;stroke:#000000;stroke-width:1px;stroke-linecap:butt;stroke-linejoin:miter;stroke-opacity:1" />
    </g>
  </g>
</svg>
